<svg width="60" height="60" viewBox="0 0 60 60" fill="none" xmlns="http://www.w3.org/2000/svg">
<rect width="60" height="60" rx="10" fill="#EBF2FF"/>
<path fill-rule="evenodd" clip-rule="evenodd" d="M38.6439 32.828V27.004L43.5999 24.008V35.824L38.6439 32.828ZM36.4319 37.308H19.9119C19.0719 37.308 18.3999 36.664 18.3999 35.852V24.148C18.3999 23.336 19.0719 22.692 19.9119 22.692H36.4319C37.2719 22.692 37.9439 23.336 37.9439 24.148V35.824C37.9439 36.664 37.2719 37.308 36.4319 37.308ZM34.9199 25.8C34.9199 25.492 34.6679 25.24 34.3599 25.24H31.1119C30.8039 25.24 30.5519 25.492 30.5519 25.8V26.36C30.5519 26.668 30.8039 26.92 31.1119 26.92H34.3319C34.6399 26.92 34.8919 26.668 34.8919 26.36V25.8H34.9199Z" fill="#3860AD"/>
</svg>
